{"title":"Mad Max Fury Road {2015} TS XVID AC3 MURD3R ","uid":11976845,"size":1571416782,"categoryP":"video","categoryS":"movies","magnet":"?xt=urn:btih:822734c01e6a1b91f89131e410ed5a40dc02b2d6&amp;dn=Mad+Max+Fury+Road+%7B2015%7D+TS+XVID+AC3+MURD3R+&amp;tr=udp%3A%2F%2Ftracker.openbittorrent.com%3A80&amp;tr=udp%3A%2F%2Fopen.demonii.com%3A1337&amp;tr=udp%3A%2F%2Ftracker.coppersurfer.tk%3A6969&amp;tr=udp%3A%2F%2Fexodus.desync.com%3A6969","seeders":10,"leechers":1,"uploader":"makintos13","files":13,"time":1433048814,"description":"Screens:\n &lt;a href=&quot;\nhttp://imgmak.com/55&quot; rel=&quot;nofollow&quot; target=&quot;_NEW&quot;&gt;\nhttp://imgmak.com/55&lt;/a&gt;\n &lt;a href=&quot;\nhttp://imgmak.com/51&quot; rel=&quot;nofollow&quot; target=&quot;_NEW&quot;&gt;\nhttp://imgmak.com/51&lt;/a&gt;\n &lt;a href=&quot;\nhttp://imgmak.com/5U&quot; rel=&quot;nofollow&quot; target=&quot;_NEW&quot;&gt;\nhttp://imgmak.com/5U&lt;/a&gt;\n &lt;a href=&quot;\nhttp://imgmak.com/53&quot; rel=&quot;nofollow&quot; target=&quot;_NEW&quot;&gt;\nhttp://imgmak.com/53&lt;/a&gt;\n &lt;a href=&quot;\nhttp://imgmak.com/5G&quot; rel=&quot;nofollow&quot; target=&quot;_NEW&quot;&gt;\nhttp://imgmak.com/5G&lt;/a&gt;\n\nCover:\n &lt;a href=&quot;\nhttp://imgmak.com/5H&quot; rel=&quot;nofollow&quot; target=&quot;_NEW&quot;&gt;\nhttp://imgmak.com/5H&lt;/a&gt;\n\nINFO:\n\nMad Max Fury Road {2015} TS XVID AC3 MURD3R\n\nAudio                       : SiMPLE..ty\nFormat                      : AVI\nFormat/Info                 : Audio Video Interleave\nFile size                   : 1.46 GiB\nDuration                    : 1h 53mn\nOverall bit rate            : 1 833 Kbps\n\nVideo\nID                          : 0\nFormat                      : MPEG-4 Visual\nFormat profile              : Advanced Simple@L5\nFormat settings, BVOP       : 2\nFormat settings, QPel       : No\nFormat settings, GMC        : No warppoints\nFormat settings, Matrix     : Default (H.263)\nCodec ID                    : XVID\nCodec ID/Hint               : XviD\nDuration                    : 1h 53mn\nBit rate                    : 1 696 Kbps\nWidth                       : 680 pixels\nHeight                      : 378 pixels\nDisplay aspect ratio        : 16:9\nFrame rate                  : 25.000 fps\nColor space                 : YUV\nChroma subsampling          : 4:2:0\nBit depth                   : 8 bits\nScan type                   : Progressive\nCompression mode            : Lossy\nBits/(Pixel*Frame)          : 0.264\nStream size                 : 1.35 GiB (92%)\nWriting library             : XviD 66\n\nAudio\nID                          : 1\nFormat                      : AC-3\nFormat/Info                 : Audio Coding 3\nMode extension              : CM (complete main)\nFormat settings, Endianness : Big\nCodec ID                    : 2000\nDuration                    : 1h 53mn\nBit rate mode               : Constant\nBit rate                    : 128 Kbps\nChannel(s)                  : 2 channels\nChannel positions           : Front: L R\nSampling rate               : 44.1 KHz\nBit depth                   : 16 bits\nCompression mode            : Lossy\nStream size                 : 104 MiB (7%)\nAlignment                   : Aligned on interleaves\nInterleave, duration        : 35 ms (0.88 video frame)","torrent":{"xt":"urn:btih:822734c01e6a1b91f89131e410ed5a40dc02b2d6","amp;dn":"Mad+Max+Fury+Road+%7B2015%7D+TS+XVID+AC3+MURD3R+","amp;tr":["udp%3A%2F%2Ftracker.openbittorrent.com%3A80","udp%3A%2F%2Fopen.demonii.com%3A1337","udp%3A%2F%2Ftracker.coppersurfer.tk%3A6969","udp%3A%2F%2Fexodus.desync.com%3A6969"],"infoHash":"822734c01e6a1b91f89131e410ed5a40dc02b2d6","infoHashBuffer":{"type":"Buffer","data":[130,39,52,192,30,106,27,145,248,145,49,228,16,237,90,64,220,2,178,214]},"announce":[],"urlList":[]}}